<mxfile host="app.diagrams.net" agent="Mozilla/5.0 (Windows NT 10.0; Win64; x64) AppleWebKit/537.36 (KHTML, like Gecko) Chrome/137.0.0.0 Safari/537.36 Edg/137.0.0.0" version="27.1.6">
  <diagram name="Page-1" id="2YBvvXClWsGukQMizWep">
    <mxGraphModel dx="906" dy="475" grid="1" gridSize="10" guides="1" tooltips="1" connect="1" arrows="1" fold="1" page="1" pageScale="1" pageWidth="850" pageHeight="1100" math="0" shadow="0">
      <root>
        <mxCell id="0" />
        <mxCell id="1" parent="0" />
        <mxCell id="aM9ryv3xv72pqoxQDRHE-5" value="V_Atencion" style="shape=umlLifeline;perimeter=lifelinePerimeter;whiteSpace=wrap;html=1;container=0;dropTarget=0;collapsible=0;recursiveResize=0;outlineConnect=0;portConstraint=eastwest;newEdgeStyle={&quot;edgeStyle&quot;:&quot;elbowEdgeStyle&quot;,&quot;elbow&quot;:&quot;vertical&quot;,&quot;curved&quot;:0,&quot;rounded&quot;:0};" parent="1" vertex="1">
          <mxGeometry x="230" y="20" width="100" height="500" as="geometry" />
        </mxCell>
        <mxCell id="aM9ryv3xv72pqoxQDRHE-6" value="" style="html=1;points=[];perimeter=orthogonalPerimeter;outlineConnect=0;targetShapes=umlLifeline;portConstraint=eastwest;newEdgeStyle={&quot;edgeStyle&quot;:&quot;elbowEdgeStyle&quot;,&quot;elbow&quot;:&quot;vertical&quot;,&quot;curved&quot;:0,&quot;rounded&quot;:0};" parent="aM9ryv3xv72pqoxQDRHE-5" vertex="1">
          <mxGeometry x="45" y="60" width="10" height="440" as="geometry" />
        </mxCell>
        <mxCell id="9pPjlTTeWQ5HEnXw2hn_-1" value="" style="shape=umlLifeline;perimeter=lifelinePerimeter;whiteSpace=wrap;html=1;container=1;dropTarget=0;collapsible=0;recursiveResize=0;outlineConnect=0;portConstraint=eastwest;newEdgeStyle={&quot;curved&quot;:0,&quot;rounded&quot;:0};participant=umlActor;" vertex="1" parent="1">
          <mxGeometry x="20" y="30" width="20" height="490" as="geometry" />
        </mxCell>
        <mxCell id="9pPjlTTeWQ5HEnXw2hn_-2" value="Veterinario" style="text;html=1;align=center;verticalAlign=middle;whiteSpace=wrap;rounded=0;" vertex="1" parent="1">
          <mxGeometry width="60" height="30" as="geometry" />
        </mxCell>
        <mxCell id="9pPjlTTeWQ5HEnXw2hn_-6" value="C_Atencion" style="shape=umlLifeline;perimeter=lifelinePerimeter;whiteSpace=wrap;html=1;container=0;dropTarget=0;collapsible=0;recursiveResize=0;outlineConnect=0;portConstraint=eastwest;newEdgeStyle={&quot;edgeStyle&quot;:&quot;elbowEdgeStyle&quot;,&quot;elbow&quot;:&quot;vertical&quot;,&quot;curved&quot;:0,&quot;rounded&quot;:0};" vertex="1" parent="1">
          <mxGeometry x="486" y="19" width="100" height="500" as="geometry" />
        </mxCell>
        <mxCell id="9pPjlTTeWQ5HEnXw2hn_-7" value="" style="html=1;points=[];perimeter=orthogonalPerimeter;outlineConnect=0;targetShapes=umlLifeline;portConstraint=eastwest;newEdgeStyle={&quot;edgeStyle&quot;:&quot;elbowEdgeStyle&quot;,&quot;elbow&quot;:&quot;vertical&quot;,&quot;curved&quot;:0,&quot;rounded&quot;:0};" vertex="1" parent="9pPjlTTeWQ5HEnXw2hn_-6">
          <mxGeometry x="45" y="60" width="10" height="440" as="geometry" />
        </mxCell>
        <mxCell id="9pPjlTTeWQ5HEnXw2hn_-12" value="2. Envía datos para guardar" style="html=1;verticalAlign=bottom;endArrow=block;edgeStyle=elbowEdgeStyle;elbow=vertical;curved=0;rounded=0;" edge="1" parent="1">
          <mxGeometry relative="1" as="geometry">
            <mxPoint x="285" y="189" as="sourcePoint" />
            <Array as="points">
              <mxPoint x="385" y="189" />
            </Array>
            <mxPoint x="530" y="190" as="targetPoint" />
          </mxGeometry>
        </mxCell>
        <mxCell id="9pPjlTTeWQ5HEnXw2hn_-16" value="BD_Gestion" style="shape=umlLifeline;perimeter=lifelinePerimeter;whiteSpace=wrap;html=1;container=0;dropTarget=0;collapsible=0;recursiveResize=0;outlineConnect=0;portConstraint=eastwest;newEdgeStyle={&quot;edgeStyle&quot;:&quot;elbowEdgeStyle&quot;,&quot;elbow&quot;:&quot;vertical&quot;,&quot;curved&quot;:0,&quot;rounded&quot;:0};" vertex="1" parent="1">
          <mxGeometry x="1035" y="21" width="100" height="499" as="geometry" />
        </mxCell>
        <mxCell id="9pPjlTTeWQ5HEnXw2hn_-18" value="" style="html=1;points=[];perimeter=orthogonalPerimeter;outlineConnect=0;targetShapes=umlLifeline;portConstraint=eastwest;newEdgeStyle={&quot;edgeStyle&quot;:&quot;elbowEdgeStyle&quot;,&quot;elbow&quot;:&quot;vertical&quot;,&quot;curved&quot;:0,&quot;rounded&quot;:0};" vertex="1" parent="9pPjlTTeWQ5HEnXw2hn_-16">
          <mxGeometry x="45" y="121" width="10" height="80" as="geometry" />
        </mxCell>
        <mxCell id="9pPjlTTeWQ5HEnXw2hn_-26" value="4. Retorna datos del paciente" style="html=1;verticalAlign=bottom;endArrow=open;dashed=1;endSize=8;edgeStyle=elbowEdgeStyle;elbow=vertical;curved=0;rounded=0;" edge="1" parent="1">
          <mxGeometry relative="1" as="geometry">
            <mxPoint x="835" y="210" as="targetPoint" />
            <Array as="points">
              <mxPoint x="930" y="210" />
            </Array>
            <mxPoint x="1080" y="210" as="sourcePoint" />
          </mxGeometry>
        </mxCell>
        <mxCell id="9pPjlTTeWQ5HEnXw2hn_-45" value="3. Obtiene datos del paciente" style="html=1;verticalAlign=bottom;endArrow=block;edgeStyle=elbowEdgeStyle;elbow=vertical;curved=0;rounded=0;" edge="1" parent="1">
          <mxGeometry relative="1" as="geometry">
            <mxPoint x="836" y="160" as="sourcePoint" />
            <Array as="points">
              <mxPoint x="936" y="160" />
            </Array>
            <mxPoint x="1080" y="160" as="targetPoint" />
          </mxGeometry>
        </mxCell>
        <mxCell id="9pPjlTTeWQ5HEnXw2hn_-49" value="5. Confirmación de guardado" style="html=1;verticalAlign=bottom;endArrow=open;dashed=1;endSize=8;edgeStyle=elbowEdgeStyle;elbow=vertical;curved=0;rounded=0;" edge="1" parent="1">
          <mxGeometry x="0.0289" relative="1" as="geometry">
            <mxPoint x="286" y="319" as="targetPoint" />
            <Array as="points">
              <mxPoint x="381" y="319" />
            </Array>
            <mxPoint x="530" y="319" as="sourcePoint" />
            <mxPoint as="offset" />
          </mxGeometry>
        </mxCell>
      </root>
    </mxGraphModel>
  </diagram>
</mxfile>
